<svg width="264" height="45" viewBox="0 0 264 45" fill="none" xmlns="http://www.w3.org/2000/svg">
<rect width="264" height="45" fill="#FFFBFB"/>
<path d="M23.0391 6.82812C23.0391 7.4375 22.8359 8.00781 22.4297 8.53906C22.0391 9.07031 21.5391 9.58594 20.9297 10.0859C20.3359 10.5859 19.6875 11.0703 18.9844 11.5391C18.2812 12.0078 17.625 12.4844 17.0156 12.9688C16.4219 13.4531 15.9219 13.9453 15.5156 14.4453C15.125 14.9453 14.9297 15.4766 14.9297 16.0391C14.9297 16.5078 15.2578 16.9609 15.9141 17.3984C16.5703 17.8359 17.5156 18.2734 18.75 18.7109C19.9844 19.1484 21.4766 19.6016 23.2266 20.0703C24.9766 20.5234 26.9453 21.0078 29.1328 21.5234C30.2266 21.8203 30.7734 22.375 30.7734 23.1875C30.7734 23.5 30.6953 23.8047 30.5391 24.1016C30.3984 24.3984 30.2031 24.6641 29.9531 24.8984C29.7031 25.1172 29.4141 25.2969 29.0859 25.4375C28.7734 25.5781 28.4531 25.6484 28.125 25.6484C27.3438 25.6484 26.4531 25.5312 25.4531 25.2969C24.4688 25.0625 23.4453 24.7734 22.3828 24.4297C21.3203 24.0859 20.2578 23.7109 19.1953 23.3047C18.1328 22.8828 17.1328 22.5 16.1953 22.1562C15.2734 21.8125 14.4531 21.5234 13.7344 21.2891C13.0312 21.0547 12.5 20.9375 12.1406 20.9375C11.8594 20.9375 11.5859 21.0703 11.3203 21.3359C11.0703 21.5859 10.8359 21.9375 10.6172 22.3906C10.4141 22.8438 10.2422 23.3828 10.1016 24.0078C9.96094 24.6172 9.85938 25.2891 9.79688 26.0234C9.71875 26.8516 9.42188 27.4688 8.90625 27.875C8.40625 28.2656 7.71094 28.4609 6.82031 28.4609C5.89844 28.4609 5.36719 28.0312 5.22656 27.1719C4.99219 25.8594 4.70312 24.5234 4.35938 23.1641C4.03125 21.8047 3.66406 20.4453 3.25781 19.0859C2.86719 17.7266 2.4375 16.3828 1.96875 15.0547C1.51562 13.7266 1.03906 12.4531 0.539062 11.2344C0.414062 10.9688 0.320312 10.7266 0.257812 10.5078C0.210938 10.2734 0.1875 10.0391 0.1875 9.80469C0.1875 9.60156 0.25 9.41406 0.375 9.24219C0.5 9.05469 0.671875 8.89062 0.890625 8.75C1.10938 8.60938 1.35938 8.5 1.64062 8.42188C1.9375 8.34375 2.24219 8.30469 2.55469 8.30469C3.19531 8.30469 3.70312 8.4375 4.07812 8.70312C4.45312 8.96875 4.83594 9.36719 5.22656 9.89844C5.41406 10.1484 5.59375 10.4844 5.76562 10.9062C5.9375 11.3125 6.10156 11.75 6.25781 12.2188C6.41406 12.6875 6.57031 13.1641 6.72656 13.6484C6.88281 14.1172 7.03125 14.5469 7.17188 14.9375C7.32812 15.3125 7.47656 15.625 7.61719 15.875C7.77344 16.1094 7.92188 16.2266 8.0625 16.2266C8.1875 16.2266 8.28906 16.1719 8.36719 16.0625C8.46094 15.9531 8.57031 15.7891 8.69531 15.5703C9.50781 13.8828 10.3984 12.3438 11.3672 10.9531C12.3359 9.54688 13.3281 8.35156 14.3438 7.36719C15.3594 6.36719 16.375 5.59375 17.3906 5.04688C18.4219 4.5 19.4062 4.22656 20.3438 4.22656C20.7188 4.22656 21.0703 4.29688 21.3984 4.4375C21.7266 4.5625 22.0078 4.74219 22.2422 4.97656C22.4922 5.21094 22.6875 5.49219 22.8281 5.82031C22.9688 6.13281 23.0391 6.46875 23.0391 6.82812ZM43.1016 8.51562C43.9609 8.51562 44.7891 8.64844 45.5859 8.91406C46.3828 9.17969 47.0859 9.54688 47.6953 10.0156C48.3047 10.4844 48.7891 11.0469 49.1484 11.7031C49.5234 12.3594 49.7109 13.0859 49.7109 13.8828C49.7109 14.2109 49.6328 14.5312 49.4766 14.8438C49.3359 15.1406 49.1406 15.4062 48.8906 15.6406C48.6406 15.8594 48.3516 16.0391 48.0234 16.1797C47.7109 16.3047 47.3828 16.3672 47.0391 16.3672C47.0078 16.3672 46.9766 16.375 46.9453 16.3906C46.9297 16.3906 46.9062 16.3906 46.875 16.3906C46.8438 16.4062 46.8125 16.4141 46.7812 16.4141L46.875 18.2891C46.9375 20.5234 47.25 22.1562 47.8125 23.1875C48.3906 24.2188 49.1406 24.7344 50.0625 24.7344C50.3906 24.7344 50.6797 24.7031 50.9297 24.6406C51.1953 24.5781 51.4375 24.5078 51.6562 24.4297C51.8906 24.3359 52.1094 24.2578 52.3125 24.1953C52.5156 24.1328 52.7188 24.1016 52.9219 24.1016C53.2812 24.1016 53.5938 24.2578 53.8594 24.5703C54.1406 24.8828 54.2812 25.2578 54.2812 25.6953C54.2812 26.1328 54.1094 26.5703 53.7656 27.0078C53.4375 27.4453 53 27.8438 52.4531 28.2031C51.9062 28.5469 51.2891 28.8281 50.6016 29.0469C49.9141 29.2656 49.2188 29.375 48.5156 29.375C47.2969 29.375 46.2266 28.875 45.3047 27.875C44.3828 26.8594 43.7266 25.375 43.3359 23.4219C43.2422 23.1094 43.1172 22.9531 42.9609 22.9531C42.7734 22.9531 42.6094 23.0469 42.4688 23.2344C40.9219 25.1875 39.2734 26.6562 37.5234 27.6406C35.7734 28.6094 34.0469 29.0938 32.3438 29.0938C31.5469 29.0938 30.8281 28.9766 30.1875 28.7422C29.5469 28.5078 29 28.1797 28.5469 27.7578C28.1094 27.3203 27.7656 26.7969 27.5156 26.1875C27.2812 25.5625 27.1641 24.8672 27.1641 24.1016C27.1641 23.0234 27.3984 21.8906 27.8672 20.7031C28.3516 19.5156 29 18.3438 29.8125 17.1875C30.625 16.0312 31.5625 14.9297 32.625 13.8828C33.7031 12.8359 34.8281 11.9141 36 11.1172C37.1875 10.3203 38.3906 9.6875 39.6094 9.21875C40.8281 8.75 41.9922 8.51562 43.1016 8.51562ZM42.3281 16.625C42.6094 16.0938 42.8672 15.7109 43.1016 15.4766C43.3359 15.2266 43.6719 15.0625 44.1094 14.9844C44.4531 14.9375 44.625 14.8281 44.625 14.6562C44.625 14.5312 44.5781 14.3984 44.4844 14.2578C44.1875 13.8516 43.875 13.5 43.5469 13.2031C43.2188 12.8906 42.7812 12.7344 42.2344 12.7344C41.6406 12.7344 40.9766 12.9062 40.2422 13.25C39.5078 13.5938 38.7578 14.0547 37.9922 14.6328C37.2422 15.1953 36.5 15.8438 35.7656 16.5781C35.0469 17.2969 34.4062 18.0391 33.8438 18.8047C33.2812 19.5703 32.8281 20.3281 32.4844 21.0781C32.1406 21.8281 31.9688 22.5 31.9688 23.0938C31.9688 23.625 32.1094 24.0391 32.3906 24.3359C32.6875 24.6328 33.0859 24.7812 33.5859 24.7812C34.8672 24.7812 36.2656 24.1016 37.7812 22.7422C39.2969 21.3828 40.8125 19.3438 42.3281 16.625ZM67.7578 11.4688C67.1797 11.4688 66.6719 11.625 66.2344 11.9375C65.7969 12.2344 65.4219 12.6562 65.1094 13.2031C64.7969 13.7344 64.5391 14.3672 64.3359 15.1016C64.1328 15.8203 63.9688 16.6094 63.8438 17.4688C63.7188 18.3281 63.6328 19.2266 63.5859 20.1641C63.5391 21.1016 63.5156 22.0469 63.5156 23C63.5156 24.25 63.5625 25.4844 63.6562 26.7031C63.7656 27.9062 63.8203 29.0234 63.8203 30.0547C63.8203 30.7266 63.5703 31.25 63.0703 31.625C62.5703 32.0156 61.8594 32.2109 60.9375 32.2109C60.7656 32.2109 60.5703 32.1953 60.3516 32.1641C60.1328 32.1328 59.9219 32.0703 59.7188 31.9766C59.5312 31.8828 59.3594 31.75 59.2031 31.5781C59.0625 31.4219 58.9844 31.2031 58.9688 30.9219C58.8281 29.5469 58.625 28.1406 58.3594 26.7031C58.0938 25.2656 57.7578 23.8359 57.3516 22.4141C56.9609 20.9766 56.4844 19.5547 55.9219 18.1484C55.375 16.7422 54.7422 15.3672 54.0234 14.0234C53.8984 13.7891 53.7891 13.5703 53.6953 13.3672C53.6172 13.1641 53.5781 12.9688 53.5781 12.7812C53.5781 12.5469 53.6797 12.2969 53.8828 12.0312C54.1016 11.75 54.3672 11.4922 54.6797 11.2578C55.0078 11.0234 55.3594 10.8359 55.7344 10.6953C56.125 10.5391 56.5 10.4609 56.8594 10.4609C57.4531 10.4609 57.9766 10.875 58.4297 11.7031C58.8828 12.5156 59.3047 13.8203 59.6953 15.6172C59.7734 15.9297 59.8359 16.1484 59.8828 16.2734C59.9297 16.3984 59.9922 16.4609 60.0703 16.4609C60.2422 16.4609 60.3516 16.1953 60.3984 15.6641C60.5859 14.1797 60.9062 12.9062 61.3594 11.8438C61.8125 10.7656 62.375 9.88281 63.0469 9.19531C63.7344 8.49219 64.5156 7.97656 65.3906 7.64844C66.2812 7.32031 67.2578 7.15625 68.3203 7.15625C68.9297 7.15625 69.5469 7.21094 70.1719 7.32031C70.7969 7.42969 71.3594 7.59375 71.8594 7.8125C72.3594 8.03125 72.7656 8.29688 73.0781 8.60938C73.3906 8.92188 73.5469 9.27344 73.5469 9.66406C73.5469 9.94531 73.4844 10.2812 73.3594 10.6719C73.25 11.0469 73.1016 11.4141 72.9141 11.7734C72.7266 12.1172 72.5078 12.4141 72.2578 12.6641C72.0234 12.8984 71.7812 13.0156 71.5312 13.0156C71.25 13.0156 70.9766 12.9375 70.7109 12.7812C70.4453 12.6094 70.1562 12.4297 69.8438 12.2422C69.5469 12.0547 69.2266 11.8828 68.8828 11.7266C68.5547 11.5547 68.1797 11.4688 67.7578 11.4688ZM86.7891 8.51562C87.6484 8.51562 88.4766 8.64844 89.2734 8.91406C90.0703 9.17969 90.7734 9.54688 91.3828 10.0156C91.9922 10.4844 92.4766 11.0469 92.8359 11.7031C93.2109 12.3594 93.3984 13.0859 93.3984 13.8828C93.3984 14.2109 93.3203 14.5312 93.1641 14.8438C93.0234 15.1406 92.8281 15.4062 92.5781 15.6406C92.3281 15.8594 92.0391 16.0391 91.7109 16.1797C91.3984 16.3047 91.0703 16.3672 90.7266 16.3672C90.6953 16.3672 90.6641 16.375 90.6328 16.3906C90.6172 16.3906 90.5938 16.3906 90.5625 16.3906C90.5312 16.4062 90.5 16.4141 90.4688 16.4141L90.5625 18.2891C90.625 20.5234 90.9375 22.1562 91.5 23.1875C92.0781 24.2188 92.8281 24.7344 93.75 24.7344C94.0781 24.7344 94.3672 24.7031 94.6172 24.6406C94.8828 24.5781 95.125 24.5078 95.3438 24.4297C95.5781 24.3359 95.7969 24.2578 96 24.1953C96.2031 24.1328 96.4062 24.1016 96.6094 24.1016C96.9688 24.1016 97.2812 24.2578 97.5469 24.5703C97.8281 24.8828 97.9688 25.2578 97.9688 25.6953C97.9688 26.1328 97.7969 26.5703 97.4531 27.0078C97.125 27.4453 96.6875 27.8438 96.1406 28.2031C95.5938 28.5469 94.9766 28.8281 94.2891 29.0469C93.6016 29.2656 92.9062 29.375 92.2031 29.375C90.9844 29.375 89.9141 28.875 88.9922 27.875C88.0703 26.8594 87.4141 25.375 87.0234 23.4219C86.9297 23.1094 86.8047 22.9531 86.6484 22.9531C86.4609 22.9531 86.2969 23.0469 86.1562 23.2344C84.6094 25.1875 82.9609 26.6562 81.2109 27.6406C79.4609 28.6094 77.7344 29.0938 76.0312 29.0938C75.2344 29.0938 74.5156 28.9766 73.875 28.7422C73.2344 28.5078 72.6875 28.1797 72.2344 27.7578C71.7969 27.3203 71.4531 26.7969 71.2031 26.1875C70.9688 25.5625 70.8516 24.8672 70.8516 24.1016C70.8516 23.0234 71.0859 21.8906 71.5547 20.7031C72.0391 19.5156 72.6875 18.3438 73.5 17.1875C74.3125 16.0312 75.25 14.9297 76.3125 13.8828C77.3906 12.8359 78.5156 11.9141 79.6875 11.1172C80.875 10.3203 82.0781 9.6875 83.2969 9.21875C84.5156 8.75 85.6797 8.51562 86.7891 8.51562ZM86.0156 16.625C86.2969 16.0938 86.5547 15.7109 86.7891 15.4766C87.0234 15.2266 87.3594 15.0625 87.7969 14.9844C88.1406 14.9375 88.3125 14.8281 88.3125 14.6562C88.3125 14.5312 88.2656 14.3984 88.1719 14.2578C87.875 13.8516 87.5625 13.5 87.2344 13.2031C86.9062 12.8906 86.4688 12.7344 85.9219 12.7344C85.3281 12.7344 84.6641 12.9062 83.9297 13.25C83.1953 13.5938 82.4453 14.0547 81.6797 14.6328C80.9297 15.1953 80.1875 15.8438 79.4531 16.5781C78.7344 17.2969 78.0938 18.0391 77.5312 18.8047C76.9688 19.5703 76.5156 20.3281 76.1719 21.0781C75.8281 21.8281 75.6562 22.5 75.6562 23.0938C75.6562 23.625 75.7969 24.0391 76.0781 24.3359C76.375 24.6328 76.7734 24.7812 77.2734 24.7812C78.5547 24.7812 79.9531 24.1016 81.4688 22.7422C82.9844 21.3828 84.5 19.3438 86.0156 16.625ZM99.1406 10.0859C99.1406 9.85156 99.2422 9.625 99.4453 9.40625C99.6484 9.17188 99.9141 8.96875 100.242 8.79688C100.57 8.60938 100.938 8.46094 101.344 8.35156C101.766 8.22656 102.188 8.16406 102.609 8.16406C102.844 8.16406 103.039 8.22656 103.195 8.35156C103.367 8.47656 103.516 8.71875 103.641 9.07812C103.766 9.42188 103.875 9.91406 103.969 10.5547C104.078 11.1797 104.18 12 104.273 13.0156C104.336 13.3281 104.391 13.5703 104.438 13.7422C104.5 13.8984 104.578 13.9766 104.672 13.9766C104.812 13.9766 104.953 13.7344 105.094 13.25C106.234 9.95312 107.883 8.30469 110.039 8.30469C111.039 8.30469 111.945 8.61719 112.758 9.24219C113.586 9.86719 114.352 10.8906 115.055 12.3125C115.773 13.7188 116.453 15.5781 117.094 17.8906C117.734 20.1875 118.375 23.0234 119.016 26.3984C119.047 26.5703 119.07 26.7266 119.086 26.8672C119.102 27.0078 119.109 27.1406 119.109 27.2656C119.109 27.625 119.023 27.9375 118.852 28.2031C118.695 28.4531 118.484 28.6641 118.219 28.8359C117.953 28.9922 117.656 29.1094 117.328 29.1875C117 29.2812 116.672 29.3281 116.344 29.3281C115.688 29.3281 115.211 29.2578 114.914 29.1172C114.633 28.9766 114.453 28.7109 114.375 28.3203C113.922 25.9453 113.477 23.8359 113.039 21.9922C112.617 20.1484 112.195 18.6016 111.773 17.3516C111.367 16.0859 110.961 15.125 110.555 14.4688C110.148 13.8125 109.742 13.4844 109.336 13.4844C108.93 13.4844 108.547 13.7422 108.188 14.2578C107.844 14.7578 107.508 15.5469 107.18 16.625C106.852 17.7031 106.531 19.0703 106.219 20.7266C105.922 22.3828 105.633 24.3594 105.352 26.6562C105.273 27.2812 104.961 27.7812 104.414 28.1562C103.867 28.5312 103.172 28.7188 102.328 28.7188C101.766 28.7188 101.336 28.6016 101.039 28.3672C100.742 28.1328 100.578 27.8125 100.547 27.4062C100.406 24.1562 100.25 21.4844 100.078 19.3906C99.9219 17.2812 99.7734 15.5938 99.6328 14.3281C99.4922 13.0469 99.375 12.0938 99.2812 11.4688C99.1875 10.8438 99.1406 10.3828 99.1406 10.0859Z" fill="#F9BC21"/>
<path d="M128.227 11.2344C127.914 11.3594 127.609 11.4219 127.312 11.4219C126.562 11.4219 126.047 10.9766 125.766 10.0859C125.688 9.85156 125.633 9.65625 125.602 9.5C125.586 9.34375 125.578 9.20312 125.578 9.07812C125.578 8.34375 125.992 7.79688 126.82 7.4375C128.461 6.78125 130.133 6.25 131.836 5.84375C133.539 5.4375 135.258 5.23438 136.992 5.23438C137.805 5.23438 138.602 5.32031 139.383 5.49219C140.18 5.66406 140.891 5.96094 141.516 6.38281C142.141 6.80469 142.648 7.36719 143.039 8.07031C143.43 8.77344 143.625 9.65625 143.625 10.7188C143.625 11.4688 143.469 12.1875 143.156 12.875C142.859 13.5625 142.461 14.2188 141.961 14.8438C141.461 15.4688 140.891 16.0625 140.25 16.625C139.609 17.1875 138.953 17.7031 138.281 18.1719C137.609 18.6406 136.945 19.0703 136.289 19.4609C135.633 19.8359 135.039 20.1641 134.508 20.4453C134.055 20.7109 133.828 20.9844 133.828 21.2656C133.828 21.5938 134.07 21.8516 134.555 22.0391C136.227 22.6328 137.938 23.1875 139.688 23.7031C141.438 24.2188 143.211 24.7969 145.008 25.4375C145.852 25.75 146.273 26.2344 146.273 26.8906C146.273 27.2031 146.18 27.5234 145.992 27.8516C145.82 28.1641 145.625 28.4531 145.406 28.7188C144.953 29.3906 144.391 29.7266 143.719 29.7266C143.484 29.7266 143.195 29.6797 142.852 29.5859C141.836 29.1953 140.742 28.7891 139.57 28.3672C138.414 27.9453 137.227 27.5312 136.008 27.125C134.805 26.7031 133.617 26.3047 132.445 25.9297C131.273 25.5391 130.188 25.1875 129.188 24.875C128.828 24.7812 128.586 24.7344 128.461 24.7344C128.336 24.7344 128.234 24.7656 128.156 24.8281C128.094 24.875 128.062 24.9844 128.062 25.1562C128.062 25.2031 128.07 25.2656 128.086 25.3438C128.102 25.4062 128.109 25.4766 128.109 25.5547C128.156 25.7891 128.211 26.1016 128.273 26.4922C128.352 26.8672 128.422 27.2578 128.484 27.6641C128.562 28.0703 128.625 28.4609 128.672 28.8359C128.719 29.1953 128.742 29.4922 128.742 29.7266C128.742 30.6016 128.266 31.2109 127.312 31.5547L126.258 31.8828C126.102 31.9297 125.961 31.9609 125.836 31.9766C125.711 32.0078 125.578 32.0234 125.438 32.0234C124.578 32.0234 124.078 31.4922 123.938 30.4297C123.562 27.5859 123.078 24.7812 122.484 22.0156C121.906 19.25 121.242 16.4922 120.492 13.7422C120.445 13.5859 120.414 13.4531 120.398 13.3438C120.398 13.2188 120.398 13.1094 120.398 13.0156C120.398 12.1875 120.844 11.625 121.734 11.3281C122.062 11.2188 122.328 11.1328 122.531 11.0703C122.75 11.0078 122.922 10.9609 123.047 10.9297C123.188 10.8828 123.289 10.8516 123.352 10.8359C123.43 10.8203 123.5 10.8125 123.562 10.8125C124.406 10.8125 124.953 11.2891 125.203 12.2422C125.531 13.4609 125.836 14.6406 126.117 15.7812C126.414 16.9219 126.68 18.0469 126.914 19.1562C127.039 19.7031 127.266 19.9766 127.594 19.9766C127.688 19.9766 127.797 19.9609 127.922 19.9297C128.047 19.8828 128.195 19.8203 128.367 19.7422C128.867 19.4766 129.469 19.1484 130.172 18.7578C130.891 18.3672 131.633 17.9375 132.398 17.4688C133.18 16.9844 133.945 16.4766 134.695 15.9453C135.461 15.4141 136.141 14.8828 136.734 14.3516C137.344 13.8203 137.836 13.2969 138.211 12.7812C138.586 12.2656 138.773 11.7812 138.773 11.3281C138.773 11.0469 138.727 10.7891 138.633 10.5547C138.555 10.3203 138.398 10.1172 138.164 9.94531C137.93 9.77344 137.609 9.64062 137.203 9.54688C136.812 9.45312 136.312 9.40625 135.703 9.40625C135.109 9.40625 134.484 9.46094 133.828 9.57031C133.188 9.66406 132.547 9.79688 131.906 9.96875C131.266 10.1406 130.633 10.3359 130.008 10.5547C129.383 10.7734 128.789 11 128.227 11.2344ZM166.688 23.8672C167.141 23.4766 167.586 23.2812 168.023 23.2812C168.273 23.2812 168.5 23.3438 168.703 23.4688C168.906 23.5938 169.133 23.7891 169.383 24.0547C169.617 24.4141 169.781 24.7109 169.875 24.9453C169.984 25.1641 170.039 25.3828 170.039 25.6016C170.039 26.0703 169.805 26.5156 169.336 26.9375C168.586 27.5625 167.773 28.125 166.898 28.625C166.023 29.1094 165.109 29.5234 164.156 29.8672C163.203 30.2109 162.219 30.4688 161.203 30.6406C160.188 30.8281 159.18 30.9219 158.18 30.9219C156.914 30.9219 155.727 30.7578 154.617 30.4297C153.508 30.1172 152.516 29.6641 151.641 29.0703C150.781 28.4766 150.055 27.7656 149.461 26.9375C148.867 26.0938 148.445 25.1484 148.195 24.1016C148.055 23.6641 147.922 23.3828 147.797 23.2578C147.688 23.1172 147.5 23.0469 147.234 23.0469C146.656 23.0469 146.211 22.9062 145.898 22.625C145.586 22.3438 145.43 21.9375 145.43 21.4062C145.43 21.1875 145.445 21.0469 145.477 20.9844L145.523 20.5156C145.602 19.9531 145.75 19.5469 145.969 19.2969C146.203 19.0469 146.562 18.9219 147.047 18.9219H147.398C148.055 18.9219 148.516 18.6172 148.781 18.0078C149.266 16.9297 149.883 15.9453 150.633 15.0547C151.383 14.1641 152.227 13.4062 153.164 12.7812C154.102 12.1406 155.102 11.6484 156.164 11.3047C157.242 10.9453 158.336 10.7656 159.445 10.7656C160.602 10.7656 161.68 10.9375 162.68 11.2812C163.695 11.6094 164.578 12.0703 165.328 12.6641C166.078 13.2578 166.664 13.9531 167.086 14.75C167.523 15.5469 167.742 16.4062 167.742 17.3281C167.742 17.9688 167.617 18.5547 167.367 19.0859C167.117 19.6172 166.758 20.0859 166.289 20.4922C165.82 20.8828 165.25 21.2031 164.578 21.4531C163.922 21.7031 163.172 21.8672 162.328 21.9453L154.195 22.7656C153.883 22.7656 153.625 22.8438 153.422 23C153.234 23.1562 153.141 23.3672 153.141 23.6328C153.141 24.0391 153.289 24.4297 153.586 24.8047C153.898 25.1797 154.305 25.5156 154.805 25.8125C155.32 26.0938 155.906 26.3203 156.562 26.4922C157.234 26.6641 157.922 26.75 158.625 26.75C159.297 26.75 159.984 26.6875 160.688 26.5625C161.406 26.4219 162.109 26.2266 162.797 25.9766C163.5 25.7266 164.18 25.4297 164.836 25.0859C165.492 24.7266 166.109 24.3203 166.688 23.8672ZM161.461 17.8203C161.695 17.7734 161.898 17.6641 162.07 17.4922C162.242 17.3047 162.328 17.0781 162.328 16.8125C162.328 16.5781 162.242 16.3594 162.07 16.1562C161.898 15.9531 161.664 15.7734 161.367 15.6172C161.07 15.4453 160.727 15.3125 160.336 15.2188C159.945 15.125 159.531 15.0781 159.094 15.0781C158.453 15.0781 157.797 15.1719 157.125 15.3594C156.453 15.5469 155.844 15.7969 155.297 16.1094C154.75 16.4062 154.305 16.7422 153.961 17.1172C153.617 17.4766 153.445 17.8359 153.445 18.1953C153.445 18.5547 153.664 18.7344 154.102 18.7344C154.367 18.7344 154.797 18.7031 155.391 18.6406C155.984 18.5781 156.641 18.5078 157.359 18.4297C158.078 18.3359 158.805 18.2344 159.539 18.125C160.273 18.0156 160.914 17.9141 161.461 17.8203ZM179.812 9.66406C180.625 9.66406 181.414 9.78125 182.18 10.0156C182.945 10.25 183.617 10.5703 184.195 10.9766C184.789 11.3672 185.266 11.8203 185.625 12.3359C185.984 12.8359 186.164 13.3516 186.164 13.8828C186.164 14.2266 186.094 14.5625 185.953 14.8906C185.812 15.2031 185.625 15.4844 185.391 15.7344C185.156 15.9688 184.891 16.1641 184.594 16.3203C184.297 16.4609 183.984 16.5312 183.656 16.5312C183.297 16.5312 182.969 16.3984 182.672 16.1328C182.375 15.8516 182.055 15.5469 181.711 15.2188C181.383 14.875 181.008 14.5703 180.586 14.3047C180.18 14.0234 179.688 13.8828 179.109 13.8828C178.547 13.8828 178.039 14.0156 177.586 14.2812C177.133 14.5469 176.75 14.9219 176.438 15.4062C176.141 15.875 175.906 16.4375 175.734 17.0938C175.578 17.7344 175.5 18.4375 175.5 19.2031C175.5 21.3906 175.914 23.0625 176.742 24.2188C177.57 25.3594 178.758 25.9297 180.305 25.9297C181.039 25.9297 181.664 25.8125 182.18 25.5781C182.711 25.3438 183.172 25.0859 183.562 24.8047C183.969 24.5234 184.336 24.2656 184.664 24.0312C184.992 23.7969 185.328 23.6797 185.672 23.6797C185.859 23.6797 186.047 23.7422 186.234 23.8672C186.422 23.9766 186.586 24.125 186.727 24.3125C186.883 24.4844 187.008 24.6797 187.102 24.8984C187.211 25.1172 187.266 25.3359 187.266 25.5547C187.266 26.0703 187.008 26.6016 186.492 27.1484C185.992 27.6953 185.344 28.1953 184.547 28.6484C183.75 29.0859 182.859 29.4453 181.875 29.7266C180.906 30.0078 179.961 30.1484 179.039 30.1484C177.805 30.1484 176.672 29.9062 175.641 29.4219C174.609 28.9531 173.719 28.2969 172.969 27.4531C172.219 26.5938 171.633 25.5703 171.211 24.3828C170.805 23.1953 170.602 21.8828 170.602 20.4453C170.602 18.8828 170.828 17.4453 171.281 16.1328C171.75 14.8203 172.391 13.6875 173.203 12.7344C174.031 11.7656 175.008 11.0156 176.133 10.4844C177.258 9.9375 178.484 9.66406 179.812 9.66406ZM191.367 5.09375C190.914 5.09375 190.484 5.03125 190.078 4.90625C189.688 4.76562 189.344 4.57812 189.047 4.34375C188.766 4.09375 188.539 3.80469 188.367 3.47656C188.195 3.14844 188.109 2.78906 188.109 2.39844C188.109 1.74219 188.367 1.21094 188.883 0.804688C189.414 0.398438 190.117 0.195312 190.992 0.195312C191.398 0.195312 191.789 0.273437 192.164 0.429688C192.539 0.570312 192.867 0.765625 193.148 1.01562C193.445 1.26563 193.68 1.5625 193.852 1.90625C194.023 2.23438 194.109 2.57813 194.109 2.9375C194.109 3.60938 193.859 4.14062 193.359 4.53125C192.875 4.90625 192.211 5.09375 191.367 5.09375ZM188.156 12.2422C188.156 11.6953 188.391 11.25 188.859 10.9062C189.344 10.5469 189.977 10.3672 190.758 10.3672C192.164 10.3672 192.914 10.8516 193.008 11.8203C193.07 12.4922 193.133 13.25 193.195 14.0938C193.273 14.9375 193.344 15.8359 193.406 16.7891C193.484 17.7266 193.547 18.7031 193.594 19.7188C193.656 20.7188 193.711 21.7109 193.758 22.6953C193.805 23.6641 193.844 24.6016 193.875 25.5078C193.906 26.4141 193.922 27.2422 193.922 27.9922C193.922 28.7734 193.641 29.3594 193.078 29.75C192.531 30.1406 191.727 30.3359 190.664 30.3359C190.18 30.3359 189.797 30.2188 189.516 29.9844C189.25 29.7656 189.117 29.4375 189.117 29C189.117 26.8438 189.062 24.8281 188.953 22.9531C188.859 21.0625 188.75 19.3828 188.625 17.9141C188.516 16.4453 188.406 15.2266 188.297 14.2578C188.203 13.2734 188.156 12.6016 188.156 12.2422ZM195.984 12.6406C195.984 12.0312 196.258 11.5703 196.805 11.2578C197.352 10.9297 198.133 10.7656 199.148 10.7656C199.383 10.7656 199.594 10.7969 199.781 10.8594C199.969 10.9219 200.133 11.0469 200.273 11.2344C200.43 11.4062 200.57 11.6484 200.695 11.9609C200.82 12.2734 200.945 12.6719 201.07 13.1562C201.195 13.7031 201.32 13.9766 201.445 13.9766C201.555 13.9766 201.688 13.75 201.844 13.2969C202.125 12.4062 202.492 11.6328 202.945 10.9766C203.414 10.3047 203.938 9.75 204.516 9.3125C205.094 8.85938 205.719 8.52344 206.391 8.30469C207.078 8.08594 207.797 7.97656 208.547 7.97656C210.062 7.97656 211.477 8.26562 212.789 8.84375C214.102 9.40625 215.234 10.1953 216.188 11.2109C217.141 12.2109 217.891 13.3984 218.438 14.7734C218.984 16.1328 219.258 17.6094 219.258 19.2031C219.258 20.8906 218.961 22.4531 218.367 23.8906C217.789 25.3281 216.977 26.5703 215.93 27.6172C214.883 28.6484 213.633 29.4531 212.18 30.0312C210.742 30.625 209.164 30.9219 207.445 30.9219L206.25 30.875C205.547 30.875 205.195 31.2734 205.195 32.0703L206.391 42.8281C206.375 43.0938 206.281 43.3359 206.109 43.5547C205.953 43.7891 205.734 43.9922 205.453 44.1641C205.188 44.3359 204.867 44.4688 204.492 44.5625C204.133 44.6562 203.758 44.7031 203.367 44.7031C202.242 44.7031 201.633 44.3359 201.539 43.6016C201.211 40.7578 200.844 38.0547 200.438 35.4922C200.047 32.9297 199.641 30.5469 199.219 28.3438C198.812 26.125 198.414 24.1094 198.023 22.2969C197.633 20.4844 197.281 18.9062 196.969 17.5625C196.672 16.2188 196.438 15.125 196.266 14.2812C196.078 13.4375 195.984 12.8906 195.984 12.6406ZM203.602 18.8281C203.602 19.8438 203.641 20.8516 203.719 21.8516C203.797 22.8359 203.922 23.9062 204.094 25.0625C204.188 25.7656 204.57 26.1641 205.242 26.2578C205.648 26.3516 206.102 26.4453 206.602 26.5391C207.117 26.6172 207.547 26.6562 207.891 26.6562C208.891 26.6562 209.797 26.5078 210.609 26.2109C211.422 25.9141 212.117 25.4922 212.695 24.9453C213.273 24.3828 213.719 23.7188 214.031 22.9531C214.344 22.1875 214.5 21.3359 214.5 20.3984C214.5 19.2578 214.344 18.1953 214.031 17.2109C213.719 16.2109 213.289 15.3438 212.742 14.6094C212.211 13.875 211.578 13.2969 210.844 12.875C210.125 12.4531 209.344 12.2422 208.5 12.2422C207.766 12.2422 207.094 12.4062 206.484 12.7344C205.891 13.0469 205.375 13.4922 204.938 14.0703C204.516 14.6328 204.188 15.3203 203.953 16.1328C203.719 16.9453 203.602 17.8438 203.602 18.8281ZM241.828 23.8672C242.281 23.4766 242.727 23.2812 243.164 23.2812C243.414 23.2812 243.641 23.3438 243.844 23.4688C244.047 23.5938 244.273 23.7891 244.523 24.0547C244.758 24.4141 244.922 24.7109 245.016 24.9453C245.125 25.1641 245.18 25.3828 245.18 25.6016C245.18 26.0703 244.945 26.5156 244.477 26.9375C243.727 27.5625 242.914 28.125 242.039 28.625C241.164 29.1094 240.25 29.5234 239.297 29.8672C238.344 30.2109 237.359 30.4688 236.344 30.6406C235.328 30.8281 234.32 30.9219 233.32 30.9219C232.055 30.9219 230.867 30.7578 229.758 30.4297C228.648 30.1172 227.656 29.6641 226.781 29.0703C225.922 28.4766 225.195 27.7656 224.602 26.9375C224.008 26.0938 223.586 25.1484 223.336 24.1016C223.195 23.6641 223.062 23.3828 222.938 23.2578C222.828 23.1172 222.641 23.0469 222.375 23.0469C221.797 23.0469 221.352 22.9062 221.039 22.625C220.727 22.3438 220.57 21.9375 220.57 21.4062C220.57 21.1875 220.586 21.0469 220.617 20.9844L220.664 20.5156C220.742 19.9531 220.891 19.5469 221.109 19.2969C221.344 19.0469 221.703 18.9219 222.188 18.9219H222.539C223.195 18.9219 223.656 18.6172 223.922 18.0078C224.406 16.9297 225.023 15.9453 225.773 15.0547C226.523 14.1641 227.367 13.4062 228.305 12.7812C229.242 12.1406 230.242 11.6484 231.305 11.3047C232.383 10.9453 233.477 10.7656 234.586 10.7656C235.742 10.7656 236.82 10.9375 237.82 11.2812C238.836 11.6094 239.719 12.0703 240.469 12.6641C241.219 13.2578 241.805 13.9531 242.227 14.75C242.664 15.5469 242.883 16.4062 242.883 17.3281C242.883 17.9688 242.758 18.5547 242.508 19.0859C242.258 19.6172 241.898 20.0859 241.43 20.4922C240.961 20.8828 240.391 21.2031 239.719 21.4531C239.062 21.7031 238.312 21.8672 237.469 21.9453L229.336 22.7656C229.023 22.7656 228.766 22.8438 228.562 23C228.375 23.1562 228.281 23.3672 228.281 23.6328C228.281 24.0391 228.43 24.4297 228.727 24.8047C229.039 25.1797 229.445 25.5156 229.945 25.8125C230.461 26.0938 231.047 26.3203 231.703 26.4922C232.375 26.6641 233.062 26.75 233.766 26.75C234.438 26.75 235.125 26.6875 235.828 26.5625C236.547 26.4219 237.25 26.2266 237.938 25.9766C238.641 25.7266 239.32 25.4297 239.977 25.0859C240.633 24.7266 241.25 24.3203 241.828 23.8672ZM236.602 17.8203C236.836 17.7734 237.039 17.6641 237.211 17.4922C237.383 17.3047 237.469 17.0781 237.469 16.8125C237.469 16.5781 237.383 16.3594 237.211 16.1562C237.039 15.9531 236.805 15.7734 236.508 15.6172C236.211 15.4453 235.867 15.3125 235.477 15.2188C235.086 15.125 234.672 15.0781 234.234 15.0781C233.594 15.0781 232.938 15.1719 232.266 15.3594C231.594 15.5469 230.984 15.7969 230.438 16.1094C229.891 16.4062 229.445 16.7422 229.102 17.1172C228.758 17.4766 228.586 17.8359 228.586 18.1953C228.586 18.5547 228.805 18.7344 229.242 18.7344C229.508 18.7344 229.938 18.7031 230.531 18.6406C231.125 18.5781 231.781 18.5078 232.5 18.4297C233.219 18.3359 233.945 18.2344 234.68 18.125C235.414 18.0156 236.055 17.9141 236.602 17.8203ZM252.516 8.65625C253.562 8.65625 254.641 8.79688 255.75 9.07812C256.859 9.34375 257.875 9.69531 258.797 10.1328C259.719 10.5547 260.477 11.0312 261.07 11.5625C261.664 12.0938 261.961 12.6094 261.961 13.1094C261.961 13.3594 261.852 13.6406 261.633 13.9531C261.414 14.25 261.148 14.5391 260.836 14.8203C260.523 15.0859 260.18 15.3125 259.805 15.5C259.445 15.6719 259.125 15.7578 258.844 15.7578C258.469 15.7578 258.047 15.6016 257.578 15.2891C257.125 14.9766 256.617 14.6328 256.055 14.2578C255.508 13.8672 254.906 13.5156 254.25 13.2031C253.594 12.8906 252.883 12.7344 252.117 12.7344C251.617 12.7344 251.203 12.8594 250.875 13.1094C250.562 13.3438 250.406 13.6797 250.406 14.1172C250.406 14.5078 250.594 14.9062 250.969 15.3125C251.344 15.7031 251.836 16.1094 252.445 16.5312C253.07 16.9531 253.773 17.3984 254.555 17.8672C255.336 18.3359 256.133 18.8359 256.945 19.3672C257.773 19.8984 258.578 20.4766 259.359 21.1016C260.141 21.7266 260.836 22.4062 261.445 23.1406C262.07 23.875 262.57 24.6797 262.945 25.5547C263.32 26.4141 263.508 27.3516 263.508 28.3672C263.508 29.2422 263.352 30.0391 263.039 30.7578C262.727 31.4766 262.281 32.0938 261.703 32.6094C261.125 33.125 260.438 33.5234 259.641 33.8047C258.844 34.0859 257.969 34.2266 257.016 34.2266C255.812 34.2266 254.703 34.0391 253.688 33.6641C252.672 33.3047 251.797 32.8047 251.062 32.1641C250.328 31.5234 249.75 30.7578 249.328 29.8672C248.922 28.9766 248.719 28 248.719 26.9375C248.719 25.5625 248.961 24.5625 249.445 23.9375C249.945 23.3125 250.727 23 251.789 23C252.445 23 252.969 23.125 253.359 23.375C253.75 23.625 253.945 23.9297 253.945 24.2891C253.945 24.4766 253.914 24.6719 253.852 24.875C253.789 25.0625 253.719 25.2656 253.641 25.4844C253.578 25.6875 253.516 25.9062 253.453 26.1406C253.406 26.375 253.383 26.6094 253.383 26.8438C253.383 27.25 253.477 27.6406 253.664 28.0156C253.852 28.3906 254.102 28.7188 254.414 29C254.742 29.2969 255.117 29.5312 255.539 29.7031C255.961 29.875 256.406 29.9609 256.875 29.9609C258.125 29.9609 258.75 29.4453 258.75 28.4141C258.75 27.6016 258.43 26.8359 257.789 26.1172C257.148 25.3828 256.344 24.6719 255.375 23.9844C254.406 23.2812 253.359 22.5781 252.234 21.875C251.125 21.1719 250.086 20.4375 249.117 19.6719C248.148 18.9062 247.344 18.0938 246.703 17.2344C246.062 16.3594 245.742 15.4141 245.742 14.3984C245.742 13.5547 245.914 12.7812 246.258 12.0781C246.617 11.375 247.102 10.7734 247.711 10.2734C248.32 9.75781 249.031 9.35938 249.844 9.07812C250.672 8.79688 251.562 8.65625 252.516 8.65625Z" fill="#10100F"/>
</svg>
